G75*
%MOIN*%
%OFA0B0*%
%FSLAX25Y25*%
%IPPOS*%
%LPD*%
%AMOC8*
5,1,8,0,0,1.08239X$1,22.5*
%
%ADD10R,0.04652X0.04534*%
%ADD11R,0.04534X0.04652*%
%ADD12R,0.04731X0.04337*%
%ADD13R,0.02800X0.06400*%
%ADD14R,0.04337X0.04731*%
%ADD15R,0.05912X0.04337*%
%ADD16C,0.06400*%
%ADD17R,0.03550X0.03550*%
%ADD18R,0.06337X0.06337*%
%ADD19C,0.06337*%
%ADD20R,0.09849X0.09849*%
%ADD21C,0.09849*%
%ADD22OC8,0.11400*%
%ADD23C,0.11400*%
%ADD24C,0.07800*%
D10*
X0168300Y0053155D03*
X0168300Y0060045D03*
X0225800Y0060045D03*
X0225800Y0053155D03*
X0215800Y0037545D03*
X0215800Y0030655D03*
D11*
X0154245Y0031600D03*
X0147355Y0031600D03*
D12*
X0178300Y0053254D03*
X0185800Y0053254D03*
X0185800Y0059946D03*
X0178300Y0059946D03*
X0215800Y0059946D03*
X0234550Y0059946D03*
X0234550Y0053254D03*
X0215800Y0053254D03*
D13*
X0208300Y0052400D03*
X0203300Y0052400D03*
X0198300Y0052400D03*
X0193300Y0052400D03*
X0193300Y0030800D03*
X0198300Y0030800D03*
X0203300Y0030800D03*
X0208300Y0030800D03*
D14*
X0210396Y0020350D03*
X0203704Y0020350D03*
X0171646Y0031600D03*
X0164954Y0031600D03*
X0164954Y0044100D03*
X0171646Y0044100D03*
X0154146Y0044100D03*
X0147454Y0044100D03*
X0196204Y0062850D03*
X0202896Y0062850D03*
D15*
X0157631Y0061600D03*
X0148969Y0065340D03*
X0137631Y0061600D03*
X0128969Y0065340D03*
X0128969Y0057860D03*
X0148969Y0057860D03*
X0128969Y0045340D03*
X0137631Y0041600D03*
X0128969Y0037860D03*
X0170131Y0022840D03*
X0161469Y0019100D03*
X0170131Y0015360D03*
X0137631Y0016600D03*
X0128969Y0012860D03*
X0128969Y0020340D03*
D16*
X0253300Y0043600D02*
X0253300Y0049600D01*
X0263300Y0053600D02*
X0263300Y0059600D01*
X0253300Y0063600D02*
X0253300Y0069600D01*
D17*
X0240003Y0040350D03*
X0234097Y0040350D03*
D18*
X0063300Y0041600D03*
D19*
X0113300Y0041600D03*
D20*
X0088300Y0066600D03*
D21*
X0088300Y0016600D03*
D22*
X0040800Y0052100D03*
D23*
X0040800Y0031100D03*
D24*
X0252800Y0032850D03*
X0253800Y0022850D03*
X0252800Y0012850D03*
M02*
