%
M48
M72
T01C0.0120
T02C0.0236
T03C0.0394
T04C0.0400
T05C0.0550
T06C0.0630
%
T01
X12080Y1410
X14705Y2410
X21580Y4660
X19330Y5660
X18580Y6535
X17830Y6535
X16830Y6535
T02
X21580Y2535
T03
X11330Y4160
X6330Y4160
T04
X25280Y3285
X25380Y2285
X25280Y1285
X25330Y4660
X26330Y5660
X25330Y6660
T05
X4080Y5210
X4080Y3110
T06
X8830Y1660
X8830Y6660
M30
